<?xml version="1.0" encoding="UTF-8" standalone="no"?>
<!DOCTYPE svg PUBLIC "-//W3C//DTD SVG 1.1//EN" "http://www.w3.org/Graphics/SVG/1.1/DTD/svg11.dtd">
<svg id="a3BudG9dCl"
     viewBox="0 0 140 140"
     height="140"
     width="140"
     style="width: 140px;
            height: 140px;
            position: absolute;
            z-index: 0;
            cursor: pointer"
     xmlns="http://www.w3.org/2000/svg"
     xmlns:xlink="http://www.w3.org/1999/xlink">
    <defs id="SvgjsDefs1178"></defs>
    <g id="SvgjsG1179" featurekey="Df7oLJ-0" transform="translate(30 80) scale(1.4 1.4)" fill="#ffffff" data-darkreader-inline-fill="" style="--darkreader-inline-fill: #e8e6e3;">
        <path xmlns="http://www.w3.org/2000/svg" d="M 54.924 37.0416 l -5.7258 -7.0374 v -27.6 c 0 -0.6624 -0.5376 -1.2 -1.2 -1.2 h -39.6 c -0.6624 0 -1.2 0.5376 -1.2 1.2 v 27.6 L 1.4718 37.0416 c -0.2958 0.3588 -0.3576 0.8556 -0.1596 1.275 c 0.1986 0.4206 0.621 0.6876 1.0854 0.6876 h 51.6006 c 0.4638 0 0.8874 -0.267 1.0854 -0.6876 S 55.2192 37.3998 54.924 37.0416 z M 9.5982 3.6042 h 37.2 v 25.8 h -37.2 V 3.6042 z M 29.499 37.2042 c -0.513 0 -2.0892 0 -2.6028 0 c -0.9606 0 -1.7376 -0.7866 -1.7898 -1.7862 H 6.0072 l 2.991 -3.6138 h 38.4 l 3 3.6138 h -19.2 C 31.1466 36.4194 30.4596 37.2042 29.499 37.2042 z">
        </path>
    </g>
    <g id="SvgjsG1180" featurekey="Ua4uQk-0" transform="scale(0.69 0.69)" fill="#ffffff" data-darkreader-inline-fill="" style="--darkreader-inline-fill: #e8e6e3;">
        <path d="M 22.528 2.4 l 7.728 0 l 0 33.6 l -5.904 0 l -15.744 -19.536 l 0 19.536 l -7.728 0 l 0 -33.6 l 6 0 l 15.648 19.536 l 0 -19.536 z M 43.168 2.064 l 0 6.384 l -7.584 0 l 0 -6.384 l 7.584 0 z M 43.168 11.04 l 0 24.96 l -7.584 0 l 0 -24.96 l 7.584 0 z M 60.352 10.608 c 4.56 0 8.4 1.92 10.752 5.952 l -5.76 2.736 c -1.248 -1.056 -2.256 -2.016 -4.896 -2.016 c -2.88 0 -5.808 2.208 -5.808 6.288 c 0 4.032 2.928 6.144 5.808 6.144 c 2.64 0 3.648 -0.864 4.896 -1.92 l 5.856 2.736 c -2.448 4.032 -6.192 5.856 -10.848 5.856 c -5.568 0 -13.056 -3.984 -13.056 -12.816 c 0 -8.688 7.488 -12.96 13.056 -12.96 z M 90.4 10.656 c 4.656 0 9.408 3.12 9.408 11.04 l 0 14.304 l -7.584 0 l 0 -13.776 c 0 -3.792 -1.296 -4.992 -3.696 -4.992 c -3.408 0 -5.376 3.312 -5.856 4.752 l 0 14.016 l -7.584 0 l 0 -33.936 l 7.584 0 l 0 13.296 c 0.48 -1.2 3.024 -4.704 7.728 -4.704 z M 116.8 10.608 c 5.664 0 13.152 4.272 13.152 13.008 c 0 8.784 -7.488 12.864 -13.152 12.864 s -13.152 -4.08 -13.152 -12.864 c 0 -8.736 7.488 -13.008 13.152 -13.008 z M 116.8 17.28 c -2.88 0 -5.808 2.208 -5.808 6.336 c 0 3.984 2.928 6.192 5.808 6.192 s 5.856 -2.208 5.856 -6.192 c 0 -4.128 -2.976 -6.336 -5.856 -6.336 z M 141.664 2.064 l 0 33.936 l -7.584 0 l 0 -33.936 l 7.584 0 z M 164.512 11.04 l 7.584 0 l 0 24.96 l -7.584 0 l 0 -2.496 c -0.336 0.864 -2.592 2.976 -6.432 2.976 c -5.712 0 -12.288 -4.08 -12.288 -13.008 c 0 -8.592 6.576 -12.864 12.288 -12.864 c 3.84 0 6.096 2.208 6.432 2.736 l 0 -2.304 z M 159.184 29.808 c 3.12 0 5.664 -2.16 5.664 -6.336 c 0 -4.032 -2.544 -6.192 -5.664 -6.192 c -3.264 0 -6.048 2.208 -6.048 6.192 c 0 4.128 2.784 6.336 6.048 6.336 z M 188.848 18.912 c -0.672 -1.728 -1.68 -2.304 -2.784 -2.304 c -1.008 0 -2.016 0.576 -2.016 1.536 c 0 0.912 0.576 1.44 1.68 1.824 l 3.168 1.104 c 3.552 1.296 7.152 2.592 7.152 7.584 c 0 5.04 -5.04 7.92 -10.224 7.92 c -4.656 0 -9.024 -2.736 -10.08 -7.104 l 5.952 -1.872 c 0.624 1.392 1.728 2.976 4.128 2.976 c 1.632 0 2.688 -1.056 2.688 -2.016 c 0 -0.48 -0.384 -1.104 -1.584 -1.584 l -2.928 -1.056 c -4.992 -1.824 -7.344 -4.368 -7.344 -7.92 c 0 -4.656 4.32 -7.392 9.072 -7.392 c 4.848 0 8.064 2.64 9.504 6.624 z">
        </path>
    </g>
    <g id="SvgjsG1180" featurekey="Ua4uQk-0" transform="translate(0 30)" fill="#ffffff" data-darkreader-inline-fill="" style="--darkreader-inline-fill: #e8e6e3;">
        <path d="M 13.248 2.4 c 9.504 0 17.04 7.488 17.04 16.56 c 0 9.552 -7.536 17.04 -17.04 17.04 l -12.48 0 l 0 -33.6 l 12.48 0 z M 13.2 28.704 c 6.096 0 9.168 -4.416 9.168 -9.744 c 0 -4.848 -3.072 -9.264 -9.168 -9.264 l -4.704 0 l 0 19.008 l 4.704 0 z M 52.608 11.04 l 7.584 0 l 0 24.96 l -7.584 0 l 0 -2.496 c -0.336 0.864 -2.592 2.976 -6.432 2.976 c -5.712 0 -12.288 -4.08 -12.288 -13.008 c 0 -8.592 6.576 -12.864 12.288 -12.864 c 3.84 0 6.096 2.208 6.432 2.736 l 0 -2.304 z M 47.28 29.808 c 3.12 0 5.664 -2.16 5.664 -6.336 c 0 -4.032 -2.544 -6.192 -5.664 -6.192 c -3.264 0 -6.048 2.208 -6.048 6.192 c 0 4.128 2.784 6.336 6.048 6.336 z M 92.88 10.944 l -11.184 25.056 l -6.672 0 l -11.184 -25.056 l 7.536 0 l 7.008 16.032 l 6.96 -16.032 l 7.536 0 z M 104.112 2.064 l 0 6.384 l -7.584 0 l 0 -6.384 l 7.584 0 z M 104.112 11.04 l 0 24.96 l -7.584 0 l 0 -24.96 l 7.584 0 z M 126.96 2.064 l 7.584 0 l 0 12.192 l 0 21.744 l -7.584 0 l 0 -2.496 c -0.336 0.864 -2.592 2.976 -6.432 2.976 c -5.712 0 -12.288 -4.08 -12.288 -13.008 c 0 -8.592 6.576 -12.864 12.288 -12.864 c 3.84 0 6.096 2.208 6.432 2.736 l 0 -11.28 z M 121.632 29.808 c 3.12 0 5.664 -2.16 5.664 -6.336 c 0 -4.032 -2.544 -6.192 -5.664 -6.192 c -3.264 0 -6.048 2.208 -6.048 6.192 c 0 4.128 2.784 6.336 6.048 6.336 z">
        </path>
    </g>
</svg>
